# xmcd
#
# Track frame offsets: 
#        150
#        24916
#        47930
#        67630
#        91521
#        111197
#        135459
#        153257
#        176232
#        197760
#        215156
#        233550
#        256319
#        273008
#
# Disc length: 3900 seconds
#
# Revision: 0
# Processed by: cddbd v1.5.2PL0 Copyright (c) Steve Scherf et al.
# Submitted via: ExactAudioCopy v0.99pb4
#
DISCID=b20f3a0e
DTITLE=Timo Gross - Desire
DYEAR=2008
DGENRE=Blues Rock
TTITLE0=Desire 
TTITLE1=Driven Soul
TTITLE2=Vodoo Priest 
TTITLE3=Freedom 
TTITLE4=Lighthouse
TTITLE5=Sweet Love
TTITLE6=That's All
TTITLE7=Howlin' Diabolo 
TTITLE8=Scary Love
TTITLE9=American Steel
TTITLE10=World Of Fire
TTITLE11=Some Kind Of Wonderful
TTITLE12=Northbound
TTITLE13=Here Comes The Blues
EXTD=
EXTT0=
EXTT1=
EXTT2=
EXTT3=
EXTT4=
EXTT5=
EXTT6=
EXTT7=
EXTT8=
EXTT9=
EXTT10=
EXTT11=
EXTT12=
EXTT13=
PLAYORDER=
